<mxfile host="app.diagrams.net" agent="Mozilla/5.0 (Windows NT 10.0; Win64; x64) AppleWebKit/537.36 (KHTML, like Gecko) Chrome/126.0.0.0 Safari/537.36 NetType/WIFI MicroMessenger/7.0.20.1781(0x6700143B) WindowsWechat(0x63090c33) XWEB/14185 Flue" version="28.0.7">
  <diagram name="第 1 页" id="g00uc8ntEKDE8pOEljim">
    <mxGraphModel dx="1489" dy="867" grid="1" gridSize="10" guides="1" tooltips="1" connect="1" arrows="1" fold="1" page="1" pageScale="1" pageWidth="2339" pageHeight="3300" math="0" shadow="0">
      <root>
        <mxCell id="0" />
        <mxCell id="1" parent="0" />
        <mxCell id="yYzF5JWK9GNKf0-ZfgpV-1" value="Conv" style="rounded=1;whiteSpace=wrap;html=1;fillColor=#0050ef;strokeColor=#001DBC;fontColor=#ffffff;direction=south;" vertex="1" parent="1">
          <mxGeometry x="200" y="120" width="40" height="80" as="geometry" />
        </mxCell>
        <mxCell id="yYzF5JWK9GNKf0-ZfgpV-2" value="ReLu" style="rounded=1;whiteSpace=wrap;html=1;fillColor=#f0a30a;strokeColor=#BD7000;direction=south;fontColor=#000000;" vertex="1" parent="1">
          <mxGeometry x="240" y="120" width="40" height="80" as="geometry" />
        </mxCell>
        <mxCell id="yYzF5JWK9GNKf0-ZfgpV-3" value="CA" style="rounded=1;whiteSpace=wrap;html=1;fillColor=#76608a;fontColor=#ffffff;strokeColor=#432D57;direction=south;" vertex="1" parent="1">
          <mxGeometry x="480" y="120" width="40" height="80" as="geometry" />
        </mxCell>
        <mxCell id="yYzF5JWK9GNKf0-ZfgpV-4" value="PA" style="rounded=1;whiteSpace=wrap;html=1;fillColor=#647687;fontColor=#ffffff;strokeColor=#314354;direction=south;" vertex="1" parent="1">
          <mxGeometry x="520" y="120" width="40" height="80" as="geometry" />
        </mxCell>
        <mxCell id="yYzF5JWK9GNKf0-ZfgpV-6" value="" style="endArrow=classic;html=1;rounded=0;entryX=0.5;entryY=1;entryDx=0;entryDy=0;" edge="1" parent="1" target="yYzF5JWK9GNKf0-ZfgpV-1">
          <mxGeometry width="50" height="50" relative="1" as="geometry">
            <mxPoint x="120" y="160" as="sourcePoint" />
            <mxPoint x="560" y="290" as="targetPoint" />
          </mxGeometry>
        </mxCell>
        <mxCell id="yYzF5JWK9GNKf0-ZfgpV-7" value="Conv" style="rounded=1;whiteSpace=wrap;html=1;fillColor=#0050ef;strokeColor=#001DBC;fontColor=#ffffff;direction=south;" vertex="1" parent="1">
          <mxGeometry x="400" y="120" width="40" height="80" as="geometry" />
        </mxCell>
        <mxCell id="yYzF5JWK9GNKf0-ZfgpV-8" value="" style="endArrow=classic;html=1;rounded=0;exitX=0.5;exitY=0;exitDx=0;exitDy=0;" edge="1" parent="1" source="yYzF5JWK9GNKf0-ZfgpV-2">
          <mxGeometry width="50" height="50" relative="1" as="geometry">
            <mxPoint x="510" y="340" as="sourcePoint" />
            <mxPoint x="320" y="160" as="targetPoint" />
          </mxGeometry>
        </mxCell>
        <mxCell id="yYzF5JWK9GNKf0-ZfgpV-9" value="" style="ellipse;whiteSpace=wrap;html=1;aspect=fixed;" vertex="1" parent="1">
          <mxGeometry x="320" y="140" width="40" height="40" as="geometry" />
        </mxCell>
        <mxCell id="yYzF5JWK9GNKf0-ZfgpV-10" value="" style="endArrow=none;html=1;rounded=0;exitX=0;exitY=0.5;exitDx=0;exitDy=0;entryX=1;entryY=0.5;entryDx=0;entryDy=0;" edge="1" parent="1" source="yYzF5JWK9GNKf0-ZfgpV-9" target="yYzF5JWK9GNKf0-ZfgpV-9">
          <mxGeometry width="50" height="50" relative="1" as="geometry">
            <mxPoint x="510" y="340" as="sourcePoint" />
            <mxPoint x="560" y="290" as="targetPoint" />
          </mxGeometry>
        </mxCell>
        <mxCell id="yYzF5JWK9GNKf0-ZfgpV-11" value="" style="endArrow=none;html=1;rounded=0;entryX=0.5;entryY=0;entryDx=0;entryDy=0;exitX=0.5;exitY=1;exitDx=0;exitDy=0;" edge="1" parent="1" source="yYzF5JWK9GNKf0-ZfgpV-9" target="yYzF5JWK9GNKf0-ZfgpV-9">
          <mxGeometry width="50" height="50" relative="1" as="geometry">
            <mxPoint x="510" y="340" as="sourcePoint" />
            <mxPoint x="560" y="290" as="targetPoint" />
          </mxGeometry>
        </mxCell>
        <mxCell id="yYzF5JWK9GNKf0-ZfgpV-12" value="" style="endArrow=classic;html=1;rounded=0;exitX=1;exitY=0.5;exitDx=0;exitDy=0;" edge="1" parent="1" source="yYzF5JWK9GNKf0-ZfgpV-9">
          <mxGeometry width="50" height="50" relative="1" as="geometry">
            <mxPoint x="510" y="140" as="sourcePoint" />
            <mxPoint x="400" y="160" as="targetPoint" />
          </mxGeometry>
        </mxCell>
        <mxCell id="yYzF5JWK9GNKf0-ZfgpV-14" value="" style="endArrow=classic;html=1;rounded=0;" edge="1" parent="1">
          <mxGeometry width="50" height="50" relative="1" as="geometry">
            <mxPoint x="160" y="160" as="sourcePoint" />
            <mxPoint x="340" y="180" as="targetPoint" />
            <Array as="points">
              <mxPoint x="160" y="230" />
              <mxPoint x="340" y="230" />
            </Array>
          </mxGeometry>
        </mxCell>
        <mxCell id="yYzF5JWK9GNKf0-ZfgpV-15" value="" style="endArrow=classic;html=1;rounded=0;exitX=0.5;exitY=0;exitDx=0;exitDy=0;" edge="1" parent="1" source="yYzF5JWK9GNKf0-ZfgpV-7">
          <mxGeometry width="50" height="50" relative="1" as="geometry">
            <mxPoint x="500" y="140" as="sourcePoint" />
            <mxPoint x="480" y="160" as="targetPoint" />
          </mxGeometry>
        </mxCell>
        <mxCell id="yYzF5JWK9GNKf0-ZfgpV-16" value="" style="endArrow=classic;html=1;rounded=0;exitX=0.5;exitY=0;exitDx=0;exitDy=0;" edge="1" parent="1" source="yYzF5JWK9GNKf0-ZfgpV-4">
          <mxGeometry width="50" height="50" relative="1" as="geometry">
            <mxPoint x="570" y="160" as="sourcePoint" />
            <mxPoint x="600" y="160" as="targetPoint" />
          </mxGeometry>
        </mxCell>
        <mxCell id="yYzF5JWK9GNKf0-ZfgpV-17" value="" style="ellipse;whiteSpace=wrap;html=1;aspect=fixed;" vertex="1" parent="1">
          <mxGeometry x="600" y="140" width="40" height="40" as="geometry" />
        </mxCell>
        <mxCell id="yYzF5JWK9GNKf0-ZfgpV-18" value="" style="endArrow=none;html=1;rounded=0;entryX=0.5;entryY=0;entryDx=0;entryDy=0;exitX=0.5;exitY=1;exitDx=0;exitDy=0;" edge="1" parent="1" source="yYzF5JWK9GNKf0-ZfgpV-17" target="yYzF5JWK9GNKf0-ZfgpV-17">
          <mxGeometry width="50" height="50" relative="1" as="geometry">
            <mxPoint x="500" y="140" as="sourcePoint" />
            <mxPoint x="550" y="90" as="targetPoint" />
          </mxGeometry>
        </mxCell>
        <mxCell id="yYzF5JWK9GNKf0-ZfgpV-19" value="" style="endArrow=none;html=1;rounded=0;entryX=1;entryY=0.5;entryDx=0;entryDy=0;exitX=0;exitY=0.5;exitDx=0;exitDy=0;" edge="1" parent="1" source="yYzF5JWK9GNKf0-ZfgpV-17" target="yYzF5JWK9GNKf0-ZfgpV-17">
          <mxGeometry width="50" height="50" relative="1" as="geometry">
            <mxPoint x="500" y="140" as="sourcePoint" />
            <mxPoint x="550" y="90" as="targetPoint" />
          </mxGeometry>
        </mxCell>
        <mxCell id="yYzF5JWK9GNKf0-ZfgpV-20" value="" style="endArrow=classic;html=1;rounded=0;exitX=1;exitY=0.5;exitDx=0;exitDy=0;" edge="1" parent="1" source="yYzF5JWK9GNKf0-ZfgpV-17">
          <mxGeometry width="50" height="50" relative="1" as="geometry">
            <mxPoint x="500" y="140" as="sourcePoint" />
            <mxPoint x="680" y="160" as="targetPoint" />
          </mxGeometry>
        </mxCell>
        <mxCell id="yYzF5JWK9GNKf0-ZfgpV-21" value="" style="endArrow=classic;html=1;rounded=0;" edge="1" parent="1">
          <mxGeometry width="50" height="50" relative="1" as="geometry">
            <mxPoint x="160" y="160" as="sourcePoint" />
            <mxPoint x="620" y="140" as="targetPoint" />
            <Array as="points">
              <mxPoint x="160" y="90" />
              <mxPoint x="410" y="90" />
              <mxPoint x="620" y="90" />
            </Array>
          </mxGeometry>
        </mxCell>
        <mxCell id="yYzF5JWK9GNKf0-ZfgpV-22" value="Conv" style="rounded=1;whiteSpace=wrap;html=1;fillColor=#0050ef;strokeColor=#001DBC;fontColor=#ffffff;direction=south;" vertex="1" parent="1">
          <mxGeometry x="240" y="280" width="40" height="80" as="geometry" />
        </mxCell>
        <mxCell id="yYzF5JWK9GNKf0-ZfgpV-23" value="ReLu" style="rounded=1;whiteSpace=wrap;html=1;fillColor=#f0a30a;strokeColor=#BD7000;direction=south;fontColor=#000000;" vertex="1" parent="1">
          <mxGeometry x="280" y="280" width="40" height="80" as="geometry" />
        </mxCell>
        <mxCell id="yYzF5JWK9GNKf0-ZfgpV-24" value="Avgpool" style="rounded=1;whiteSpace=wrap;html=1;fillColor=#fa6800;strokeColor=#C73500;direction=south;fontColor=#000000;" vertex="1" parent="1">
          <mxGeometry x="200" y="280" width="40" height="80" as="geometry" />
        </mxCell>
        <mxCell id="yYzF5JWK9GNKf0-ZfgpV-25" value="Conv" style="rounded=1;whiteSpace=wrap;html=1;fillColor=#0050ef;strokeColor=#001DBC;fontColor=#ffffff;direction=south;shadow=0;" vertex="1" parent="1">
          <mxGeometry x="320" y="280" width="40" height="80" as="geometry" />
        </mxCell>
        <mxCell id="yYzF5JWK9GNKf0-ZfgpV-26" value="" style="endArrow=classic;html=1;rounded=0;entryX=0.5;entryY=1;entryDx=0;entryDy=0;" edge="1" parent="1" target="yYzF5JWK9GNKf0-ZfgpV-24">
          <mxGeometry width="50" height="50" relative="1" as="geometry">
            <mxPoint x="120" y="320" as="sourcePoint" />
            <mxPoint x="160" y="320" as="targetPoint" />
          </mxGeometry>
        </mxCell>
        <mxCell id="yYzF5JWK9GNKf0-ZfgpV-27" value="" style="endArrow=classic;html=1;rounded=0;exitX=0.5;exitY=0;exitDx=0;exitDy=0;" edge="1" parent="1" source="yYzF5JWK9GNKf0-ZfgpV-25">
          <mxGeometry width="50" height="50" relative="1" as="geometry">
            <mxPoint x="500" y="370" as="sourcePoint" />
            <mxPoint x="400" y="320" as="targetPoint" />
          </mxGeometry>
        </mxCell>
        <mxCell id="yYzF5JWK9GNKf0-ZfgpV-28" value="" style="ellipse;whiteSpace=wrap;html=1;aspect=fixed;" vertex="1" parent="1">
          <mxGeometry x="400" y="300" width="40" height="40" as="geometry" />
        </mxCell>
        <mxCell id="yYzF5JWK9GNKf0-ZfgpV-33" value="" style="endArrow=none;html=1;rounded=0;entryX=0.5;entryY=0;entryDx=0;entryDy=0;exitX=0.5;exitY=1;exitDx=0;exitDy=0;" edge="1" parent="1">
          <mxGeometry width="50" height="50" relative="1" as="geometry">
            <mxPoint x="425" y="340" as="sourcePoint" />
            <mxPoint x="425" y="300" as="targetPoint" />
            <Array as="points">
              <mxPoint x="430" y="330" />
              <mxPoint x="420" y="310" />
            </Array>
          </mxGeometry>
        </mxCell>
        <mxCell id="yYzF5JWK9GNKf0-ZfgpV-34" value="" style="endArrow=classic;html=1;rounded=0;exitX=1;exitY=0.5;exitDx=0;exitDy=0;" edge="1" parent="1" source="yYzF5JWK9GNKf0-ZfgpV-28" target="yYzF5JWK9GNKf0-ZfgpV-35">
          <mxGeometry width="50" height="50" relative="1" as="geometry">
            <mxPoint x="500" y="320" as="sourcePoint" />
            <mxPoint x="480" y="320" as="targetPoint" />
          </mxGeometry>
        </mxCell>
        <mxCell id="yYzF5JWK9GNKf0-ZfgpV-35" value="" style="ellipse;whiteSpace=wrap;html=1;aspect=fixed;" vertex="1" parent="1">
          <mxGeometry x="480" y="300" width="40" height="40" as="geometry" />
        </mxCell>
        <mxCell id="yYzF5JWK9GNKf0-ZfgpV-36" value="" style="endArrow=none;html=1;rounded=0;exitX=0;exitY=1;exitDx=0;exitDy=0;entryX=1;entryY=0;entryDx=0;entryDy=0;" edge="1" parent="1" source="yYzF5JWK9GNKf0-ZfgpV-35" target="yYzF5JWK9GNKf0-ZfgpV-35">
          <mxGeometry width="50" height="50" relative="1" as="geometry">
            <mxPoint x="500" y="320" as="sourcePoint" />
            <mxPoint x="550" y="270" as="targetPoint" />
          </mxGeometry>
        </mxCell>
        <mxCell id="yYzF5JWK9GNKf0-ZfgpV-37" value="" style="endArrow=none;html=1;rounded=0;entryX=1;entryY=1;entryDx=0;entryDy=0;exitX=0;exitY=0;exitDx=0;exitDy=0;" edge="1" parent="1" source="yYzF5JWK9GNKf0-ZfgpV-35" target="yYzF5JWK9GNKf0-ZfgpV-35">
          <mxGeometry width="50" height="50" relative="1" as="geometry">
            <mxPoint x="500" y="320" as="sourcePoint" />
            <mxPoint x="550" y="270" as="targetPoint" />
          </mxGeometry>
        </mxCell>
        <mxCell id="yYzF5JWK9GNKf0-ZfgpV-38" value="" style="endArrow=classic;html=1;rounded=0;entryX=0.5;entryY=0;entryDx=0;entryDy=0;" edge="1" parent="1" target="yYzF5JWK9GNKf0-ZfgpV-35">
          <mxGeometry width="50" height="50" relative="1" as="geometry">
            <mxPoint x="160" y="320" as="sourcePoint" />
            <mxPoint x="550" y="270" as="targetPoint" />
            <Array as="points">
              <mxPoint x="160" y="270" />
              <mxPoint x="500" y="270" />
            </Array>
          </mxGeometry>
        </mxCell>
        <mxCell id="yYzF5JWK9GNKf0-ZfgpV-39" value="" style="endArrow=classic;html=1;rounded=0;exitX=1;exitY=0.5;exitDx=0;exitDy=0;" edge="1" parent="1" source="yYzF5JWK9GNKf0-ZfgpV-35">
          <mxGeometry width="50" height="50" relative="1" as="geometry">
            <mxPoint x="500" y="320" as="sourcePoint" />
            <mxPoint x="600" y="320" as="targetPoint" />
          </mxGeometry>
        </mxCell>
        <mxCell id="yYzF5JWK9GNKf0-ZfgpV-40" value="" style="endArrow=classic;html=1;rounded=0;entryX=0.5;entryY=0;entryDx=0;entryDy=0;" edge="1" parent="1" target="yYzF5JWK9GNKf0-ZfgpV-49">
          <mxGeometry width="50" height="50" relative="1" as="geometry">
            <mxPoint x="560" y="320" as="sourcePoint" />
            <mxPoint x="860" y="270" as="targetPoint" />
            <Array as="points">
              <mxPoint x="560" y="270" />
              <mxPoint x="860" y="270" />
            </Array>
          </mxGeometry>
        </mxCell>
        <mxCell id="yYzF5JWK9GNKf0-ZfgpV-41" value="Conv" style="rounded=1;whiteSpace=wrap;html=1;fillColor=#0050ef;strokeColor=#001DBC;fontColor=#ffffff;direction=south;" vertex="1" parent="1">
          <mxGeometry x="680" y="280" width="40" height="80" as="geometry" />
        </mxCell>
        <mxCell id="yYzF5JWK9GNKf0-ZfgpV-42" value="Conv" style="rounded=1;whiteSpace=wrap;html=1;fillColor=#0050ef;strokeColor=#001DBC;fontColor=#ffffff;direction=south;" vertex="1" parent="1">
          <mxGeometry x="600" y="280" width="40" height="80" as="geometry" />
        </mxCell>
        <mxCell id="yYzF5JWK9GNKf0-ZfgpV-43" value="ReLu" style="rounded=1;whiteSpace=wrap;html=1;fillColor=#f0a30a;strokeColor=#BD7000;direction=south;fontColor=#000000;" vertex="1" parent="1">
          <mxGeometry x="640" y="280" width="40" height="80" as="geometry" />
        </mxCell>
        <mxCell id="yYzF5JWK9GNKf0-ZfgpV-44" value="" style="endArrow=classic;html=1;rounded=0;exitX=0.5;exitY=0;exitDx=0;exitDy=0;" edge="1" parent="1" source="yYzF5JWK9GNKf0-ZfgpV-41">
          <mxGeometry width="50" height="50" relative="1" as="geometry">
            <mxPoint x="500" y="320" as="sourcePoint" />
            <mxPoint x="760" y="320" as="targetPoint" />
          </mxGeometry>
        </mxCell>
        <mxCell id="yYzF5JWK9GNKf0-ZfgpV-45" value="" style="ellipse;whiteSpace=wrap;html=1;aspect=fixed;" vertex="1" parent="1">
          <mxGeometry x="760" y="300" width="40" height="40" as="geometry" />
        </mxCell>
        <mxCell id="yYzF5JWK9GNKf0-ZfgpV-46" value="" style="endArrow=none;html=1;rounded=0;entryX=0.5;entryY=0;entryDx=0;entryDy=0;exitX=0.5;exitY=1;exitDx=0;exitDy=0;" edge="1" parent="1">
          <mxGeometry width="50" height="50" relative="1" as="geometry">
            <mxPoint x="785" y="340" as="sourcePoint" />
            <mxPoint x="785" y="300" as="targetPoint" />
            <Array as="points">
              <mxPoint x="790" y="330" />
              <mxPoint x="780" y="310" />
            </Array>
          </mxGeometry>
        </mxCell>
        <mxCell id="yYzF5JWK9GNKf0-ZfgpV-47" value="" style="endArrow=classic;html=1;rounded=0;exitX=1;exitY=0.5;exitDx=0;exitDy=0;" edge="1" parent="1" source="yYzF5JWK9GNKf0-ZfgpV-45">
          <mxGeometry width="50" height="50" relative="1" as="geometry">
            <mxPoint x="790" y="320" as="sourcePoint" />
            <mxPoint x="840" y="320" as="targetPoint" />
          </mxGeometry>
        </mxCell>
        <mxCell id="yYzF5JWK9GNKf0-ZfgpV-49" value="" style="ellipse;whiteSpace=wrap;html=1;aspect=fixed;" vertex="1" parent="1">
          <mxGeometry x="840" y="300" width="40" height="40" as="geometry" />
        </mxCell>
        <mxCell id="yYzF5JWK9GNKf0-ZfgpV-50" value="" style="endArrow=none;html=1;rounded=0;exitX=0;exitY=1;exitDx=0;exitDy=0;entryX=1;entryY=0;entryDx=0;entryDy=0;" edge="1" parent="1" source="yYzF5JWK9GNKf0-ZfgpV-49" target="yYzF5JWK9GNKf0-ZfgpV-49">
          <mxGeometry width="50" height="50" relative="1" as="geometry">
            <mxPoint x="860" y="320" as="sourcePoint" />
            <mxPoint x="910" y="270" as="targetPoint" />
          </mxGeometry>
        </mxCell>
        <mxCell id="yYzF5JWK9GNKf0-ZfgpV-51" value="" style="endArrow=none;html=1;rounded=0;entryX=1;entryY=1;entryDx=0;entryDy=0;exitX=0;exitY=0;exitDx=0;exitDy=0;" edge="1" parent="1" source="yYzF5JWK9GNKf0-ZfgpV-49" target="yYzF5JWK9GNKf0-ZfgpV-49">
          <mxGeometry width="50" height="50" relative="1" as="geometry">
            <mxPoint x="860" y="320" as="sourcePoint" />
            <mxPoint x="910" y="270" as="targetPoint" />
          </mxGeometry>
        </mxCell>
        <mxCell id="yYzF5JWK9GNKf0-ZfgpV-52" value="" style="endArrow=classic;html=1;rounded=0;exitX=1;exitY=0.5;exitDx=0;exitDy=0;" edge="1" parent="1" source="yYzF5JWK9GNKf0-ZfgpV-49">
          <mxGeometry width="50" height="50" relative="1" as="geometry">
            <mxPoint x="790" y="320" as="sourcePoint" />
            <mxPoint x="920" y="320" as="targetPoint" />
          </mxGeometry>
        </mxCell>
        <mxCell id="yYzF5JWK9GNKf0-ZfgpV-53" value="" style="endArrow=none;dashed=1;html=1;rounded=0;" edge="1" parent="1">
          <mxGeometry width="50" height="50" relative="1" as="geometry">
            <mxPoint x="110" y="80" as="sourcePoint" />
            <mxPoint x="110" y="80" as="targetPoint" />
            <Array as="points">
              <mxPoint x="700" y="80" />
              <mxPoint x="700" y="240" />
              <mxPoint x="110" y="240" />
            </Array>
          </mxGeometry>
        </mxCell>
        <mxCell id="yYzF5JWK9GNKf0-ZfgpV-54" value="" style="endArrow=none;dashed=1;html=1;rounded=0;" edge="1" parent="1">
          <mxGeometry width="50" height="50" relative="1" as="geometry">
            <mxPoint x="110" y="260" as="sourcePoint" />
            <mxPoint x="110" y="260" as="targetPoint" />
            <Array as="points">
              <mxPoint x="940" y="260" />
              <mxPoint x="940" y="370" />
              <mxPoint x="110" y="370" />
            </Array>
          </mxGeometry>
        </mxCell>
        <mxCell id="yYzF5JWK9GNKf0-ZfgpV-55" value="CA" style="text;html=1;align=center;verticalAlign=middle;whiteSpace=wrap;rounded=0;" vertex="1" parent="1">
          <mxGeometry x="490" y="270" width="60" height="30" as="geometry" />
        </mxCell>
        <mxCell id="yYzF5JWK9GNKf0-ZfgpV-56" value="PA" style="text;html=1;align=center;verticalAlign=middle;whiteSpace=wrap;rounded=0;" vertex="1" parent="1">
          <mxGeometry x="870" y="270" width="60" height="30" as="geometry" />
        </mxCell>
      </root>
    </mxGraphModel>
  </diagram>
</mxfile>
